<svg width="1107" height="154" viewBox="0 0 1107 154" fill="none" xmlns="http://www.w3.org/2000/svg">
<path d="M7.04 32.4H29.312V122H7.04V32.4ZM121.495 32.4V122H99.095L65.687 67.728V122H43.415V32.4H65.815L99.223 87.056V32.4H121.495ZM213.62 32.4V122H191.22L157.812 67.728V122H135.54V32.4H157.94L191.348 87.056V32.4H213.62ZM270.289 122.896C263.889 122.896 257.916 121.787 252.369 119.568C246.822 117.349 241.916 114.235 237.649 110.224C233.468 106.128 230.182 101.307 227.793 95.76C225.404 90.128 224.209 83.9413 224.209 77.2C224.209 70.4587 225.404 64.3147 227.793 58.768C230.182 53.136 233.468 48.3147 237.649 44.304C241.916 40.208 246.822 37.0507 252.369 34.832C257.916 32.6133 263.889 31.504 270.289 31.504C276.689 31.504 282.662 32.6133 288.209 34.832C293.841 37.0507 298.748 40.208 302.929 44.304C307.11 48.3147 310.396 53.136 312.785 58.768C315.174 64.3147 316.369 70.4587 316.369 77.2C316.369 83.9413 315.174 90.128 312.785 95.76C310.396 101.307 307.068 106.128 302.801 110.224C298.62 114.235 293.756 117.349 288.209 119.568C282.662 121.787 276.689 122.896 270.289 122.896ZM270.289 103.824C274.982 103.824 279.078 102.672 282.577 100.368C286.076 98.064 288.806 94.9067 290.769 90.896C292.732 86.8853 293.713 82.32 293.713 77.2C293.713 71.9947 292.732 67.4293 290.769 63.504C288.806 59.4933 286.076 56.336 282.577 54.032C279.078 51.728 274.982 50.576 270.289 50.576C265.51 50.576 261.372 51.728 257.873 54.032C254.374 56.336 251.644 59.4933 249.681 63.504C247.804 67.4293 246.865 71.9947 246.865 77.2C246.865 82.32 247.804 86.8853 249.681 90.896C251.644 94.9067 254.374 98.064 257.873 100.368C261.372 102.672 265.51 103.824 270.289 103.824ZM387.019 32.4H410.955L379.211 122H350.923L319.179 32.4H343.115L365.131 99.472L387.019 32.4ZM450.495 51.088H446.015L421.183 122H398.143L430.911 32.4H466.239L498.751 122H475.711L450.495 51.088ZM422.079 85.392H474.303V104.08H422.079V85.392ZM492.084 32.4H570.036V51.088H542.132V122H519.86V51.088H492.084V32.4ZM580.54 32.4H602.812V122H580.54V32.4ZM659.539 122.896C653.139 122.896 647.166 121.787 641.619 119.568C636.072 117.349 631.166 114.235 626.899 110.224C622.718 106.128 619.432 101.307 617.043 95.76C614.654 90.128 613.459 83.9413 613.459 77.2C613.459 70.4587 614.654 64.3147 617.043 58.768C619.432 53.136 622.718 48.3147 626.899 44.304C631.166 40.208 636.072 37.0507 641.619 34.832C647.166 32.6133 653.139 31.504 659.539 31.504C665.939 31.504 671.912 32.6133 677.459 34.832C683.091 37.0507 687.998 40.208 692.179 44.304C696.36 48.3147 699.646 53.136 702.035 58.768C704.424 64.3147 705.619 70.4587 705.619 77.2C705.619 83.9413 704.424 90.128 702.035 95.76C699.646 101.307 696.318 106.128 692.051 110.224C687.87 114.235 683.006 117.349 677.459 119.568C671.912 121.787 665.939 122.896 659.539 122.896ZM659.539 103.824C664.232 103.824 668.328 102.672 671.827 100.368C675.326 98.064 678.056 94.9067 680.019 90.896C681.982 86.8853 682.963 82.32 682.963 77.2C682.963 71.9947 681.982 67.4293 680.019 63.504C678.056 59.4933 675.326 56.336 671.827 54.032C668.328 51.728 664.232 50.576 659.539 50.576C654.76 50.576 650.622 51.728 647.123 54.032C643.624 56.336 640.894 59.4933 638.931 63.504C637.054 67.4293 636.115 71.9947 636.115 77.2C636.115 82.32 637.054 86.8853 638.931 90.896C640.894 94.9067 643.624 98.064 647.123 100.368C650.622 102.672 654.76 103.824 659.539 103.824ZM794.245 32.4V122H771.845L738.437 67.728V122H716.165V32.4H738.565L771.973 87.056V32.4H794.245Z" fill="white"/>
<path d="M821.072 32.4V115.216H863.824V122H813.264V32.4H821.072ZM911.657 39.184H907.433L876.713 122H868.777L902.057 32.4H916.905L950.057 122H942.249L911.657 39.184ZM883.497 90.512H935.721V97.296H883.497V90.512ZM1017.17 56.08C1017.17 51.1307 1015.51 47.0773 1012.18 43.92C1008.85 40.7627 1003.78 39.184 996.949 39.184H970.197V72.848H997.461C1003.86 72.848 1008.73 71.3547 1012.05 68.368C1015.47 65.296 1017.17 61.2 1017.17 56.08ZM962.389 122V32.4H997.589C1003.9 32.4 1009.07 33.4667 1013.08 35.6C1017.09 37.648 1020.03 40.3787 1021.91 43.792C1023.87 47.2053 1024.85 51.0027 1024.85 55.184C1024.85 59.3653 1024.09 62.864 1022.55 65.68C1021.01 68.496 1018.97 70.7147 1016.41 72.336C1013.93 73.9573 1011.2 75.0667 1008.21 75.664V76.432C1011.8 76.944 1015 78.1387 1017.81 80.016C1020.63 81.808 1022.85 84.24 1024.47 87.312C1026.18 90.2987 1027.03 93.8827 1027.03 98.064C1027.03 102.501 1025.92 106.555 1023.7 110.224C1021.57 113.808 1018.37 116.667 1014.1 118.8C1009.83 120.933 1004.54 122 998.229 122H962.389ZM970.197 115.216H997.717C1004.54 115.216 1009.83 113.68 1013.59 110.608C1017.43 107.451 1019.35 103.056 1019.35 97.424C1019.35 91.792 1017.34 87.44 1013.33 84.368C1009.41 81.2107 1004.07 79.632 997.333 79.632H970.197V115.216ZM1048.32 100.496C1048.92 102.885 1050.07 105.275 1051.78 107.664C1053.49 110.053 1055.88 112.059 1058.95 113.68C1062.11 115.216 1066.2 115.984 1071.24 115.984C1078.32 115.984 1083.57 114.363 1086.98 111.12C1090.39 107.877 1092.1 103.867 1092.1 99.088C1092.1 95.4187 1091.12 92.3893 1089.16 90C1087.28 87.6107 1084.68 85.648 1081.35 84.112C1078.11 82.576 1074.44 81.2107 1070.34 80.016C1066.84 79.0773 1063.43 78.0533 1060.1 76.944C1056.86 75.7493 1053.91 74.2987 1051.27 72.592C1048.62 70.8853 1046.53 68.7093 1045 66.064C1043.46 63.3333 1042.69 59.9627 1042.69 55.952C1042.69 51.0027 1043.84 46.736 1046.15 43.152C1048.45 39.4827 1051.69 36.624 1055.88 34.576C1060.14 32.528 1065.13 31.504 1070.85 31.504C1075.89 31.504 1080.24 32.272 1083.91 33.808C1087.58 35.2587 1090.61 37.3067 1093 39.952C1095.39 42.512 1097.09 45.3707 1098.12 48.528L1091.33 51.088C1090.65 49.1253 1089.41 47.1627 1087.62 45.2C1085.91 43.152 1083.61 41.488 1080.71 40.208C1077.89 38.8427 1074.52 38.16 1070.6 38.16C1066.93 38.16 1063.56 38.8427 1060.48 40.208C1057.41 41.488 1054.94 43.408 1053.06 45.968C1051.27 48.4427 1050.37 51.4293 1050.37 54.928C1050.37 58.6827 1051.4 61.6693 1053.44 63.888C1055.49 66.0213 1058.18 67.7707 1061.51 69.136C1064.92 70.416 1068.68 71.6533 1072.77 72.848C1076.27 73.9573 1079.64 75.152 1082.88 76.432C1086.21 77.712 1089.11 79.2907 1091.59 81.168C1094.15 83.0453 1096.15 85.392 1097.6 88.208C1099.14 90.9387 1099.91 94.3093 1099.91 98.32C1099.91 102.672 1098.88 106.725 1096.84 110.48C1094.87 114.235 1091.8 117.264 1087.62 119.568C1083.44 121.787 1078.02 122.896 1071.36 122.896C1065.65 122.896 1060.7 122.043 1056.52 120.336C1052.42 118.544 1049.09 116.197 1046.53 113.296C1043.97 110.309 1042.22 106.981 1041.28 103.312L1048.32 100.496Z" fill="white"/>
</svg>

