<svg width="780" height="154" viewBox="0 0 780 154" fill="none" xmlns="http://www.w3.org/2000/svg">
<path d="M29.312 122H7.04V32.4H33.408L57.984 93.2L82.56 32.4H108.928V122H86.656V70.672L67.072 122H48.896L29.312 70.672V122ZM165.664 122.896C159.264 122.896 153.291 121.787 147.744 119.568C142.197 117.349 137.291 114.235 133.024 110.224C128.843 106.128 125.557 101.307 123.168 95.76C120.779 90.128 119.584 83.9413 119.584 77.2C119.584 70.4587 120.779 64.3147 123.168 58.768C125.557 53.136 128.843 48.3147 133.024 44.304C137.291 40.208 142.197 37.0507 147.744 34.832C153.291 32.6133 159.264 31.504 165.664 31.504C172.064 31.504 178.037 32.6133 183.584 34.832C189.216 37.0507 194.123 40.208 198.304 44.304C202.485 48.3147 205.771 53.136 208.16 58.768C210.549 64.3147 211.744 70.4587 211.744 77.2C211.744 83.9413 210.549 90.128 208.16 95.76C205.771 101.307 202.443 106.128 198.176 110.224C193.995 114.235 189.131 117.349 183.584 119.568C178.037 121.787 172.064 122.896 165.664 122.896ZM165.664 103.824C170.357 103.824 174.453 102.672 177.952 100.368C181.451 98.064 184.181 94.9067 186.144 90.896C188.107 86.8853 189.088 82.32 189.088 77.2C189.088 71.9947 188.107 67.4293 186.144 63.504C184.181 59.4933 181.451 56.336 177.952 54.032C174.453 51.728 170.357 50.576 165.664 50.576C160.885 50.576 156.747 51.728 153.248 54.032C149.749 56.336 147.019 59.4933 145.056 63.504C143.179 67.4293 142.24 71.9947 142.24 77.2C142.24 82.32 143.179 86.8853 145.056 90.896C147.019 94.9067 149.749 98.064 153.248 100.368C156.747 102.672 160.885 103.824 165.664 103.824ZM282.394 32.4H306.33L274.586 122H246.298L214.554 32.4H238.49L260.506 99.472L282.394 32.4ZM382.99 51.088H338.062V67.856H371.598V85.264H338.062V103.312H382.99V122H315.79V32.4H382.99V51.088ZM446.252 61.584C446.252 58.3413 445.271 55.7813 443.308 53.904C441.345 52.0267 438.359 51.088 434.348 51.088H416.812V72.208H434.348C436.993 72.208 439.169 71.824 440.876 71.056C442.668 70.2027 443.991 68.9653 444.844 67.344C445.783 65.7227 446.252 63.8027 446.252 61.584ZM435.756 32.4C443.18 32.4 449.324 33.7653 454.188 36.496C459.137 39.1413 462.807 42.6827 465.196 47.12C467.671 51.5573 468.908 56.3787 468.908 61.584C468.908 65.168 468.225 68.7093 466.86 72.208C465.58 75.7067 463.575 78.864 460.844 81.68C458.199 84.496 454.785 86.7573 450.604 88.464C446.423 90.0853 441.473 90.896 435.756 90.896H416.812V122H394.54V32.4H435.756ZM447.02 83.216L470.572 122H445.996L423.724 83.216H447.02Z" fill="white"/>
<path d="M494.072 32.4V115.216H536.824V122H486.264V32.4H494.072ZM584.657 39.184H580.433L549.713 122H541.777L575.057 32.4H589.905L623.057 122H615.249L584.657 39.184ZM556.497 90.512H608.721V97.296H556.497V90.512ZM690.173 56.08C690.173 51.1307 688.509 47.0773 685.181 43.92C681.853 40.7627 676.776 39.184 669.949 39.184H643.197V72.848H670.461C676.861 72.848 681.725 71.3547 685.053 68.368C688.466 65.296 690.173 61.2 690.173 56.08ZM635.389 122V32.4H670.589C676.904 32.4 682.066 33.4667 686.077 35.6C690.088 37.648 693.032 40.3787 694.909 43.792C696.872 47.2053 697.853 51.0027 697.853 55.184C697.853 59.3653 697.085 62.864 695.549 65.68C694.013 68.496 691.965 70.7147 689.405 72.336C686.93 73.9573 684.2 75.0667 681.213 75.664V76.432C684.797 76.944 687.997 78.1387 690.813 80.016C693.629 81.808 695.848 84.24 697.469 87.312C699.176 90.2987 700.029 93.8827 700.029 98.064C700.029 102.501 698.92 106.555 696.701 110.224C694.568 113.808 691.368 116.667 687.101 118.8C682.834 120.933 677.544 122 671.229 122H635.389ZM643.197 115.216H670.717C677.544 115.216 682.834 113.68 686.589 110.608C690.429 107.451 692.349 103.056 692.349 97.424C692.349 91.792 690.344 87.44 686.333 84.368C682.408 81.2107 677.074 79.632 670.333 79.632H643.197V115.216ZM721.324 100.496C721.921 102.885 723.073 105.275 724.78 107.664C726.487 110.053 728.876 112.059 731.948 113.68C735.105 115.216 739.201 115.984 744.236 115.984C751.319 115.984 756.567 114.363 759.98 111.12C763.393 107.877 765.1 103.867 765.1 99.088C765.1 95.4187 764.119 92.3893 762.156 90C760.279 87.6107 757.676 85.648 754.348 84.112C751.105 82.576 747.436 81.2107 743.34 80.016C739.841 79.0773 736.428 78.0533 733.1 76.944C729.857 75.7493 726.913 74.2987 724.268 72.592C721.623 70.8853 719.532 68.7093 717.996 66.064C716.46 63.3333 715.692 59.9627 715.692 55.952C715.692 51.0027 716.844 46.736 719.148 43.152C721.452 39.4827 724.695 36.624 728.876 34.576C733.143 32.528 738.135 31.504 743.852 31.504C748.887 31.504 753.239 32.272 756.908 33.808C760.577 35.2587 763.607 37.3067 765.996 39.952C768.385 42.512 770.092 45.3707 771.116 48.528L764.332 51.088C763.649 49.1253 762.412 47.1627 760.62 45.2C758.913 43.152 756.609 41.488 753.708 40.208C750.892 38.8427 747.521 38.16 743.596 38.16C739.927 38.16 736.556 38.8427 733.484 40.208C730.412 41.488 727.937 43.408 726.06 45.968C724.268 48.4427 723.372 51.4293 723.372 54.928C723.372 58.6827 724.396 61.6693 726.444 63.888C728.492 66.0213 731.18 67.7707 734.508 69.136C737.921 70.416 741.676 71.6533 745.772 72.848C749.271 73.9573 752.641 75.152 755.884 76.432C759.212 77.712 762.113 79.2907 764.588 81.168C767.148 83.0453 769.153 85.392 770.604 88.208C772.14 90.9387 772.908 94.3093 772.908 98.32C772.908 102.672 771.884 106.725 769.836 110.48C767.873 114.235 764.801 117.264 760.62 119.568C756.439 121.787 751.02 122.896 744.364 122.896C738.647 122.896 733.697 122.043 729.516 120.336C725.42 118.544 722.092 116.197 719.532 113.296C716.972 110.309 715.223 106.981 714.284 103.312L721.324 100.496Z" fill="white"/>
</svg>
